<svg width="658" height="1627" viewBox="0 0 658 1627" fill="none" xmlns="http://www.w3.org/2000/svg">
<path d="M338.789 1314.37C-93.3811 1099.12 -21.8525 733.277 67.9331 577.26L817.534 560L882 620.918L882 1210.3L856.014 1622L641.628 1622C720.753 1609.14 770.959 1529.61 338.789 1314.37Z" fill="#86B5E1"/>
<path d="M420.969 1319C-11.4307 1107 60.1359 746.667 149.969 593L899.969 576L964.469 636L964.469 1216.5L938.469 1622L723.969 1622C803.136 1609.33 853.369 1531 420.969 1319Z" fill="#84B2DC"/>
<path d="M561.789 1322.55C129.619 1109.54 201.148 747.482 290.933 593.081L1040.53 576L1105 636.287L1105 1219.56L1079.01 1627L864.628 1627C943.753 1614.27 993.959 1535.56 561.789 1322.55Z" fill="#86B5E1"/>
<path d="M338.789 312.635C-93.3811 527.878 -21.8525 893.723 67.9331 1049.74L817.534 1067L882 1006.08L882 416.703L856.014 5.00007L641.628 5.00006C720.753 17.8605 770.959 97.392 338.789 312.635Z" fill="#86B5E1"/>
<path d="M420.969 308C-11.4307 520 60.1359 880.333 149.969 1034L899.969 1051L964.469 991L964.469 410.5L938.469 5.00007L723.969 5.00006C803.136 17.6667 853.369 96.0001 420.969 308Z" fill="#84B2DC"/>
<path d="M561.789 304.448C129.619 517.462 201.148 879.518 290.933 1033.92L1040.53 1051L1105 990.713L1105 407.438L1079.01 -4.72352e-05L864.628 -6.59774e-05C943.753 12.7272 993.959 91.435 561.789 304.448Z" fill="#86B5E1"/>
</svg>
