<svg width="1440" height="930" viewBox="0 0 1440 930" fill="none" xmlns="http://www.w3.org/2000/svg">
<g clip-path="url(#clip0)">
<rect width="1440" height="930" fill="#FDFDFD"/>
<path d="M1120.79 724.365C688.619 509.122 760.147 143.277 849.933 -12.74L1599.53 -30L1664 30.9178V620.297L1638.01 1032H1423.63C1502.75 1019.14 1552.96 939.608 1120.79 724.365Z" fill="#86B5E1"/>
<path d="M1202.97 729C770.569 517 842.136 156.667 931.969 3L1681.97 -14L1746.47 46V626.5L1720.47 1032H1505.97C1585.14 1019.33 1635.37 941 1202.97 729Z" fill="#84B2DC"/>
<path d="M1343.79 732.552C911.619 519.538 983.147 157.482 1072.93 3.08126L1822.53 -14L1887 46.2868V629.562L1861.01 1037H1646.63C1725.75 1024.27 1775.96 945.565 1343.79 732.552Z" fill="#86B5E1"/>
</g>
<defs>
<clipPath id="clip0">
<rect width="1440" height="930" fill="white"/>
</clipPath>
</defs>
</svg>
