<svg width="611" height="1627" viewBox="0 0 611 1627" fill="none" xmlns="http://www.w3.org/2000/svg">
<path d="M272.211 312.635C704.381 527.878 632.853 893.723 543.067 1049.74L-206.534 1067L-271 1006.08L-271 416.703L-245.014 5.00007L-30.6278 5.00006C-109.752 17.8605 -159.959 97.392 272.211 312.635Z" fill="#86B5E1"/>
<path d="M190.031 308C622.431 520 550.864 880.333 461.031 1034L-288.969 1051L-353.469 991L-353.469 410.5L-327.469 5.00007L-112.969 5.00006C-192.136 17.6667 -242.369 96.0001 190.031 308Z" fill="#84B2DC"/>
<path d="M49.2111 304.448C481.381 517.462 409.853 879.518 320.067 1033.92L-429.534 1051L-494 990.713L-494 407.438L-468.014 -4.72352e-05L-253.628 -6.59774e-05C-332.752 12.7272 -382.959 91.435 49.2111 304.448Z" fill="#86B5E1"/>
<path d="M272.211 1314.37C704.381 1099.12 632.853 733.277 543.067 577.26L-206.534 560L-271 620.918L-271 1210.3L-245.014 1622L-30.6278 1622C-109.752 1609.14 -159.959 1529.61 272.211 1314.37Z" fill="#86B5E1"/>
<path d="M190.031 1319C622.431 1107 550.864 746.667 461.031 593L-288.969 576L-353.469 636L-353.469 1216.5L-327.469 1622L-112.969 1622C-192.136 1609.33 -242.369 1531 190.031 1319Z" fill="#84B2DC"/>
<path d="M49.2111 1322.55C481.381 1109.54 409.853 747.483 320.067 593.081L-429.534 576L-494 636.287L-494 1219.56L-468.014 1627L-253.628 1627C-332.752 1614.27 -382.959 1535.57 49.2111 1322.55Z" fill="#86B5E1"/>
</svg>
